HIERARCHY
ROOT Hips
{
    OFFSET   0.000000   0.000000   0.000000
    CHANNELS 6 Xposition Yposition Zposition Zrotation Xrotation Yrotation
    JOINT Chest
    {
        OFFSET   0.000000   8.007240   0.000000
        CHANNELS 3 Zrotation Xrotation Yrotation
        JOINT Chest2
        {
            OFFSET   0.000000  22.077100   0.000000
            CHANNELS 3 Zrotation Xrotation Yrotation
            JOINT Neck
            {
                OFFSET   0.000000  23.254800   0.000000
                CHANNELS 3 Zrotation Xrotation Yrotation
                JOINT Head
                {
                    OFFSET   0.000000  14.370000   1.956600
                    CHANNELS 3 Zrotation Xrotation Yrotation
                    End Site
                    {
                        OFFSET   0.000000  19.566000   0.000000
                    }
                }
            }
            JOINT LeftCollar
            {
                OFFSET   3.911900  19.017000  -0.467064
                CHANNELS 3 Zrotation Xrotation Yrotation
                JOINT LeftShoulder
                {
                    OFFSET  10.383700   0.000000   0.000000
                    CHANNELS 3 Zrotation Xrotation Yrotation
                    JOINT LeftElbow
                    {
                        OFFSET  26.662100   0.001476   0.000517
                        CHANNELS 3 Zrotation Xrotation Yrotation
                        JOINT LeftWrist
                        {
                            OFFSET  28.869000  -0.000025  -0.000106
                            CHANNELS 3 Zrotation Xrotation Yrotation
                            JOINT LeftFinger0
                            {
                                OFFSET   2.044660  -2.323460   3.252850
                                CHANNELS 3 Zrotation Xrotation Yrotation
                                JOINT LeftFinger01
                                {
                                    OFFSET   3.088130   0.000000   0.000000
                                    CHANNELS 3 Zrotation Xrotation Yrotation
                                    JOINT LeftFinger02
                                    {
                                        OFFSET   2.639460   0.000000   0.000000
                                        CHANNELS 3 Zrotation Xrotation Yrotation
                                        End Site
                                        {
                                            OFFSET   2.582190   0.000000   0.000000
                                        }
                                    }
                                }
                            }
                            JOINT LeftFinger1
                            {
                                OFFSET   8.364480   0.000000   3.252850
                                CHANNELS 3 Zrotation Xrotation Yrotation
                                JOINT LeftFinger11
                                {
                                    OFFSET   4.646930   0.000000   0.000000
                                    CHANNELS 3 Zrotation Xrotation Yrotation
                                    JOINT LeftFinger12
                                    {
                                        OFFSET   2.323460   0.000000   0.000000
                                        CHANNELS 3 Zrotation Xrotation Yrotation
                                        End Site
                                        {
                                            OFFSET   2.273050   0.000000   0.000000
                                        }
                                    }
                                }
                            }
                            JOINT LeftFinger2
                            {
                                OFFSET   8.364490   0.000015   1.078090
                                CHANNELS 3 Zrotation Xrotation Yrotation
                                JOINT LeftFinger21
                                {
                                    OFFSET   5.111620   0.000000   0.000000
                                    CHANNELS 3 Zrotation Xrotation Yrotation
                                    JOINT LeftFinger22
                                    {
                                        OFFSET   2.788160   0.000016   0.000000
                                        CHANNELS 3 Zrotation Xrotation Yrotation
                                        End Site
                                        {
                                            OFFSET   2.727660   0.000000   0.000000
                                        }
                                    }
                                }
                            }
                            JOINT LeftFinger3
                            {
                                OFFSET   7.899780   0.000017  -1.078090
                                CHANNELS 3 Zrotation Xrotation Yrotation
                                JOINT LeftFinger31
                                {
                                    OFFSET   4.646930   0.000000   0.000000
                                    CHANNELS 3 Zrotation Xrotation Yrotation
                                    JOINT LeftFinger32
                                    {
                                        OFFSET   2.323470   0.000000   0.000000
                                        CHANNELS 3 Zrotation Xrotation Yrotation
                                        End Site
                                        {
                                            OFFSET   2.273050   0.000000   0.000000
                                        }
                                    }
                                }
                            }
                            JOINT LeftFinger4
                            {
                                OFFSET   7.435090   0.000000  -3.252850
                                CHANNELS 3 Zrotation Xrotation Yrotation
                                JOINT LeftFinger41
                                {
                                    OFFSET   3.717550   0.000000   0.000000
                                    CHANNELS 3 Zrotation Xrotation Yrotation
                                    JOINT LeftFinger42
                                    {
                                        OFFSET   1.858770   0.000000   0.000000
                                        CHANNELS 3 Zrotation Xrotation Yrotation
                                        End Site
                                        {
                                            OFFSET   1.818440   0.000000   0.000000
                                        }
                                    }
                                }
                            }
                        }
                    }
                }
            }
            JOINT RightCollar
            {
                OFFSET  -3.911900  19.017000  -0.467063
                CHANNELS 3 Zrotation Xrotation Yrotation
                JOINT RightShoulder
                {
                    OFFSET -10.383700   0.000019   0.000000
                    CHANNELS 3 Zrotation Xrotation Yrotation
                    JOINT RightElbow
                    {
                        OFFSET -26.662100   0.001175   0.000102
                        CHANNELS 3 Zrotation Xrotation Yrotation
                        JOINT RightWrist
                        {
                            OFFSET -28.869000   0.000016  -0.000079
                            CHANNELS 3 Zrotation Xrotation Yrotation
                            JOINT RightFinger0
                            {
                                OFFSET  -2.044660  -2.323490   3.252850
                                CHANNELS 3 Zrotation Xrotation Yrotation
                                JOINT RightFinger01
                                {
                                    OFFSET  -3.088140   0.000000   0.000000
                                    CHANNELS 3 Zrotation Xrotation Yrotation
                                    JOINT RightFinger02
                                    {
                                        OFFSET  -2.639460   0.000000   0.000000
                                        CHANNELS 3 Zrotation Xrotation Yrotation
                                        End Site
                                        {
                                            OFFSET  -2.582190   0.000000   0.000000
                                        }
                                    }
                                }
                            }
                            JOINT RightFinger1
                            {
                                OFFSET  -8.364480   0.000000   3.252850
                                CHANNELS 3 Zrotation Xrotation Yrotation
                                JOINT RightFinger11
                                {
                                    OFFSET  -4.646930   0.000000   0.000000
                                    CHANNELS 3 Zrotation Xrotation Yrotation
                                    JOINT RightFinger12
                                    {
                                        OFFSET  -2.323470   0.000000   0.000000
                                        CHANNELS 3 Zrotation Xrotation Yrotation
                                        End Site
                                        {
                                            OFFSET  -2.273050   0.000000   0.000000
                                        }
                                    }
                                }
                            }
                            JOINT RightFinger2
                            {
                                OFFSET  -8.364480   0.000000   1.078090
                                CHANNELS 3 Zrotation Xrotation Yrotation
                                JOINT RightFinger21
                                {
                                    OFFSET  -5.111620   0.000000   0.000000
                                    CHANNELS 3 Zrotation Xrotation Yrotation
                                    JOINT RightFinger22
                                    {
                                        OFFSET  -2.788160   0.000000   0.000000
                                        CHANNELS 3 Zrotation Xrotation Yrotation
                                        End Site
                                        {
                                            OFFSET  -2.727660   0.000000   0.000000
                                        }
                                    }
                                }
                            }
                            JOINT RightFinger3
                            {
                                OFFSET  -7.899780   0.000000  -1.078090
                                CHANNELS 3 Zrotation Xrotation Yrotation
                                JOINT RightFinger31
                                {
                                    OFFSET  -4.646930   0.000000   0.000000
                                    CHANNELS 3 Zrotation Xrotation Yrotation
                                    JOINT RightFinger32
                                    {
                                        OFFSET  -2.323470   0.000000   0.000000
                                        CHANNELS 3 Zrotation Xrotation Yrotation
                                        End Site
                                        {
                                            OFFSET  -2.273050   0.000000   0.000000
                                        }
                                    }
                                }
                            }
                            JOINT RightFinger4
                            {
                                OFFSET  -7.435090   0.000000  -3.252850
                                CHANNELS 3 Zrotation Xrotation Yrotation
                                JOINT RightFinger41
                                {
                                    OFFSET  -3.717550   0.000000   0.000000
                                    CHANNELS 3 Zrotation Xrotation Yrotation
                                    JOINT RightFinger42
                                    {
                                        OFFSET  -1.858770   0.000000   0.000000
                                        CHANNELS 3 Zrotation Xrotation Yrotation
                                        End Site
                                        {
                                            OFFSET  -1.818440   0.000000   0.000000
                                        }
                                    }
                                }
                            }
                        }
                    }
                }
            }
        }
    }
    JOINT LeftHip
    {
        OFFSET   9.783040   0.000000   0.000000
        CHANNELS 3 Zrotation Xrotation Yrotation
        JOINT LeftKnee
        {
            OFFSET   0.000032 -41.789100  -0.002222
            CHANNELS 3 Zrotation Xrotation Yrotation
            JOINT LeftAnkle
            {
                OFFSET   0.000087 -41.133200  -0.000135
                CHANNELS 3 Zrotation Xrotation Yrotation
                JOINT LeftToe
                {
                    OFFSET   0.000000  -6.358960  14.674500
                    CHANNELS 3 Zrotation Xrotation Yrotation
                    End Site
                    {
                        OFFSET   0.000000   0.000000   3.913200
                    }
                }
            }
        }
    }
    JOINT RightHip
    {
        OFFSET  -9.783040   0.000000   0.000000
        CHANNELS 3 Zrotation Xrotation Yrotation
        JOINT RightKnee
        {
            OFFSET   0.000047 -41.789100  -0.000896
            CHANNELS 3 Zrotation Xrotation Yrotation
            JOINT RightAnkle
            {
                OFFSET  -0.000117 -41.133300  -0.000248
                CHANNELS 3 Zrotation Xrotation Yrotation
                JOINT RightToe
                {
                    OFFSET   0.000000  -6.358970  14.674500
                    CHANNELS 3 Zrotation Xrotation Yrotation
                    End Site
                    {
                        OFFSET   0.000000   0.000000   3.913200
                    }
                }
            }
        }
    }
}
MOTION
Frames: 4
Frame Time:   0.016667
 -0.664295  89.500800  -0.736362  -1.869420  -5.157380  -0.374462   1.491990   4.018520  -0.804929   3.051820   8.014210  -1.721110   0.182314  -1.317110   0.003974   0.280698  -2.670810   3.870940  -7.799030   2.653960   1.351380 -68.443700  13.840400  -8.911680  -3.514940  -7.071680  -9.773090   8.348150 -10.979300  13.026100  41.630500  27.141400 -60.606800 -21.800600   0.005708   0.002363  -5.900320   0.003175   0.001027 -28.316100   6.084100 -11.132000 -23.655100  -0.006385  -0.001816 -16.558600   0.007101  -0.006243 -27.644100   2.502100  -4.764250 -30.501500  -0.003738  -0.001292 -20.314000  -0.002121  -0.001560 -27.696400  -1.704700   3.245170 -30.406300  -0.000498  -0.004443 -20.250600   0.007265  -0.000829 -27.674400  -1.704150   3.245460 -41.584000  -0.002599   0.011688 -27.695000  -0.001670   0.005807   8.583930  -0.153101   8.383830  68.207600   9.566530  -1.025760   1.623500  -6.749520   9.402010 -13.481300 -16.355100   2.658020 -45.212700  31.688400  61.284500  21.141500   0.001330  -0.000412   5.570750   0.000860   0.004848  26.978000   3.546450   6.928470  22.242200  -0.001504  -0.000319  15.569500   0.000795  -0.000693  27.590100   3.620710   6.890080  30.840700   0.000228   0.001299  20.539900  -0.002737   0.003743  28.256900   3.699600   6.848200  35.817900   0.003807  -0.001332  23.854700   0.001324  -0.001825  31.515100   0.967953   1.577620  47.305000   0.000626  -0.012060  31.496700   0.004515  -0.014199   3.704620   8.714060   3.125360   0.819741   0.361069  12.394900  -3.495990  -2.533970   4.465800   0.000000   0.000000  -0.000000   1.251910   3.929970  -5.814760   1.445940   4.145060  -2.168990  -4.737900  -2.498800  -1.590060  -0.000000   0.000000  -0.000000
 -0.664205  89.501200  -0.736493  -1.868810  -5.161240  -0.368426   1.496380   4.027410  -0.797448   3.060300   8.032120  -1.706670   0.177971  -1.326930   0.003995   0.281193  -2.690640   3.855780  -7.804140   2.630360   1.330520 -68.439000  13.872700  -8.912800  -3.523860  -7.081400  -9.768990   8.324930 -10.978900  13.028800  41.630300  27.141000 -60.592300 -21.810000   0.005709   0.002332  -5.905000   0.003175   0.001030 -28.315500   6.076890 -11.118500 -23.652800  -0.006392  -0.001813 -16.557000   0.007096  -0.006242 -27.643200   2.496470  -4.754060 -30.489200  -0.003743  -0.001294 -20.305800  -0.002124  -0.001561 -27.695200  -1.716360   3.267290 -30.411500  -0.000501  -0.004445 -20.254000   0.007262  -0.000826 -27.669100  -1.715360   3.267810 -41.576900  -0.002594   0.011691 -27.690200  -0.001666   0.005806   8.606380  -0.224381   8.398860  68.222400   9.567170  -1.085450   1.622770  -6.780910   9.365860 -13.462900 -16.309400   2.688450 -45.249500  31.716200  61.364300  21.101900   0.001274  -0.000393   5.550980   0.000835   0.004857  26.972300   3.575390   6.985010  22.243300  -0.001528  -0.000319  15.570300   0.000715  -0.000615  27.587000   3.650110   6.946420  30.841600   0.000195   0.001276  20.540500  -0.002796   0.003831  28.249900   3.729470   6.904290  35.809700   0.003823  -0.001336  23.849200   0.001384  -0.001832  31.514400   0.995239   1.622260  47.303000   0.000574  -0.012076  31.497400   0.004488  -0.014229   3.704990   8.705470   3.126030   0.818614   0.390346  12.394400  -3.498990  -2.548390   4.457200   0.000000   0.000000   0.000000   1.246420   3.936830  -5.807570   1.452060   4.146520  -2.183880  -4.738010  -2.504090  -1.587580   0.000000   0.000000  -0.000000
 -0.664114  89.502100  -0.736624  -1.867940  -5.169930  -0.360134   1.503730   4.044160  -0.780487   3.074180   8.065970  -1.673650   0.171370  -1.347780   0.004016   0.281474  -2.732800   3.821390  -7.812140   2.588470   1.288920 -68.433700  13.927300  -8.914790  -3.536910  -7.091210  -9.761960   8.292980 -10.976100  13.034600  41.628800  27.144500 -60.572400 -21.819400   0.005709   0.002302  -5.909680   0.003174   0.001033 -28.311500   6.069670 -11.105000 -23.647100  -0.006407  -0.001806 -16.553000   0.007083  -0.006240 -27.641000   2.490840  -4.743880 -30.470200  -0.003756  -0.001299 -20.293100  -0.002132  -0.001567 -27.694000  -1.728030   3.289410 -30.416600  -0.000513  -0.004449 -20.257400   0.007253  -0.000817 -27.659400  -1.726580   3.290170 -41.563600  -0.002581   0.011700 -27.681300  -0.001655   0.005801   8.640460  -0.368698   8.422310  68.271400   9.572600  -1.187840   1.616500  -6.857440   9.298620 -13.434300 -16.263600   2.718880 -45.286300  31.743900  61.444100  21.062400   0.001155  -0.000357   5.531210   0.000779   0.004872  26.973300   3.604310   7.041550  22.250900  -0.001569  -0.000316  15.575600   0.000536  -0.000441  27.585600   3.679490   7.002760  30.847700   0.000134   0.001224  20.544600  -0.002921   0.004030  28.242800   3.759330   6.960380  35.801400   0.003856  -0.001343  23.843700   0.001508  -0.001846  31.518900   1.022520   1.666900  47.301000   0.000488  -0.012109  31.502500   0.004424  -0.014293   3.705260   8.696870   3.127840   0.814973   0.431068  12.393900  -3.504130  -2.569160   4.444660   0.000000   0.000000   0.000000   1.237150   3.952740  -5.797130   1.463220   4.147940  -2.209780  -4.737980  -2.512920  -1.579410   0.000000   0.000000   0.000000
 -0.665366  89.503200  -0.734069  -1.867500  -5.180490  -0.357143   1.510070   4.060960  -0.756530   3.085540   8.100140  -1.626520   0.168300  -1.373220   0.004015   0.278183  -2.784300   3.769690  -7.816770   2.548980   1.244770 -68.437300  13.984600  -8.918190  -3.543110  -7.090850  -9.754540   8.279390 -10.961400  13.041700  41.633600  27.155100 -60.566600 -21.813600   0.005700   0.002304  -5.906800   0.003183   0.001021 -28.295500   6.083200 -11.135600 -23.636100  -0.006425  -0.001795 -16.545300   0.007060  -0.006237 -27.636600   2.500120  -4.762030 -30.455200  -0.003779  -0.001307 -20.283200  -0.002145  -0.001576 -27.696300  -1.709870   3.255050 -30.406000  -0.000534  -0.004455 -20.250400   0.007239  -0.000803 -27.649300  -1.707990   3.256040 -41.547900  -0.002561   0.011718 -27.670900  -0.001636   0.005792   8.667360  -0.543554   8.440890  68.352600   9.616350  -1.299040   1.602250  -6.959460   9.237620 -13.424000 -16.293000   2.711290 -45.187100  31.632600  61.308400  21.102500   0.000993  -0.000323   5.551280   0.000702   0.004885  27.000900   3.584440   6.996250  22.272100  -0.001612  -0.000301  15.590500   0.000282  -0.000198  27.594200   3.657390   6.958480  30.898700   0.000053   0.001148  20.578600  -0.003083   0.004312  28.247900   3.736390   6.916530  35.864100   0.003905  -0.001356  23.885400   0.001674  -0.001867  31.543700   1.013450   1.651080  47.335400   0.000406  -0.012149  31.527600   0.004331  -0.014382   3.708860   8.702920   3.130930   0.808467   0.447571  12.393900  -3.508820  -2.578770   4.437440   0.000000   0.000000   0.000000   1.229040   3.973860  -5.792290   1.475480   4.142380  -2.238890  -4.737400  -2.520530  -1.562250  -0.000000   0.000000  -0.000000
